<?xml version="1.0" encoding="UTF-8"?>
<svg width="596.08" height="815.74" version="1.1" viewBox="0 0 157.71 215.83" xmlns="http://www.w3.org/2000/svg" xmlns:cc="http://creativecommons.org/ns#" xmlns:dc="http://purl.org/dc/elements/1.1/" xmlns:rdf="http://www.w3.org/1999/02/22-rdf-syntax-ns#">
 <metadata>
  <rdf:RDF>
   <cc:Work rdf:about="">
    <dc:format>image/svg+xml</dc:format>
    <dc:type rdf:resource="http://purl.org/dc/dcmitype/StillImage"/>
    <dc:title/>
   </cc:Work>
  </rdf:RDF>
 </metadata>
 <g transform="translate(.20071 16.736)">
  <g transform="matrix(.91689 0 0 .91689 8.3099 7.632)">
   <path d="m4.2066 205.23c-0.41754-1.9717-0.52794-3.8139-0.24547-4.0938 0.67211-0.66568 45.472-10.636 45.894-10.214 0.17774 0.17774 0.57985 1.9276 0.8934 3.8884l0.57006 3.565-6.8526 1.5084c-3.7689 0.82962-14.198 3.1784-23.176 5.2194l-16.324 3.711zm124.54 0.29088c-8.3936-0.85635-16.571-1.5882-18.172-1.6263l-2.9109-0.0693 0.61232-3.7063c0.33676-2.0384 0.74768-3.8538 0.9131-4.034 0.16538-0.18021 9.4408 0.50942 20.612 1.5326 11.171 1.0232 20.998 1.8575 21.837 1.8539 1.2283-4e-3 1.5261 0.75919 1.5261 3.9177v3.9243l-4.5783-0.11799c-2.5181-0.0648-11.446-0.81846-19.839-1.6748zm-62.925-3.8758c-0.17156-2.1583-0.18837-3.9243-0.03684-3.9243 0.3886 0 12.248-1.6987 15.643-2.2408l2.8248-0.45093-0.56067-10.427-0.56065-10.427 3.8403-4e-3c2.1122-3e-3 6.4892-0.25637 9.7267-0.56212l5.8864-0.55594v-21.549h25.29v7.8486h-17.441v21.503l-5.0144 0.1587c-2.7579 0.0872-7.1185 0.40129-9.6902 0.69794l-4.6758 0.53932 0.61958 9.916c0.34076 5.4538 0.28652 9.9251-0.12064 9.9361-0.40704 0.0102-5.8416 0.78686-12.077 1.7241-6.2353 0.93721-11.788 1.7131-12.339 1.7241-0.56445 0.0117-1.1386-1.6942-1.3144-3.9042zm-32.15-20.149c-3.0468-3.579-6.0656-6.9437-6.7085-7.4773-0.9132-0.75791-2.7015 0.52127-8.1744 5.8472l-7.0055 6.8174-19.052-18.993 5.5754-5.7523 13.537 13.457 2.4217-2.1134c1.332-1.1623 4.6378-4.2298 7.3463-6.8165l4.9246-4.7031 3.36 3.7972c1.848 2.0885 4.9297 5.4686 6.8483 7.5114l3.4882 3.7142 7.288-6.1078c4.0084-3.3592 7.6207-6.3133 8.0272-6.5646 0.40652-0.25128 4.0845 3.9702 8.1732 9.381l7.4341 9.8378-2.8164 2.3747c-1.549 1.3061-3.0126 2.3743-3.2524 2.3738-0.23978-5.5e-4 -2.573-2.9332-5.1849-6.517-2.6119-3.5838-4.8998-6.516-5.0841-6.516-0.18441 0-3.7711 2.9151-7.9705 6.478l-7.6353 6.478zm107.98 0.14365-6.3612-5.6164-8.7206 9.6441-2.524-2.6549c-2.9864-3.1412-2.9439-3.2384 5.39-12.325l5.1986-5.6684 6.1402 5.4504c3.3771 2.9977 6.4679 5.4476 6.8685 5.4441 0.40053-3e-3 2.6512-2.3403 5.0015-5.193 4.5422-5.5131 5.2814-5.6738 8.7039-1.892 1.6005 1.7685 1.5311 1.8951-5.5354 10.109-3.9359 4.5752-7.301 8.3186-7.4782 8.3186-0.17724 0-3.1846-2.5274-6.6833-5.6164zm-71.637-13.736c-1.2332-1.5757-1.9628-3.1269-1.6214-3.4472 5.2846-4.958 24.088-19.814 24.644-19.47 0.41231 0.25481 1.5531 1.5917 2.5351 2.9708l1.7855 2.5074-11.781 9.893c-6.4797 5.4412-12.127 10.01-12.55 10.152-0.42306 0.14234-1.7781-1.0302-3.0112-2.6059zm-25.65-9.4244-2.8475-1.7362 3.0655-6.0874c1.6861-3.348 3.0656-6.2749 3.0656-6.5041 0-0.22914-3.4337-2.2023-7.6305-4.3846-4.1968-2.1823-8.1243-4.2862-8.7279-4.6753-0.83608-0.53902-0.26507-2.753 2.3982-9.2983 1.9225-4.725 3.4955-8.9194 3.4955-9.3209 0-0.40151-3.8826-2.5321-8.6279-4.7346l-8.6279-4.0045 3.943-11.908c2.1687-6.5496 4.2491-12.245 4.6233-12.657 0.74347-0.81763 6.9453 0.92588 6.9453 1.9526 0 0.34819-1.3534 4.6518-3.0075 9.5636l-3.0075 8.9305 1.9174 0.75564c2.3539 0.92766 15.791 7.0882 16.078 7.3715 0.11421 0.11258-1.3575 4.0362-3.2702 8.7192-1.9128 4.683-3.4777 9.0335-3.4777 9.6676 0 0.63419 3.9243 3.1688 8.7206 5.6325 4.7963 2.4637 8.7206 4.706 8.7206 4.9829 0 0.97074-9.8639 19.477-10.38 19.474-0.28665-1e-3 -1.8026-0.78452-3.3687-1.7394zm103.27-0.66195c-0.37082-0.6-4.0859-10.196-14.937-38.582-2.1085-5.5158-3.9564-10.548-4.1065-11.183-0.24447-1.0342 5.9477-4.3449 6.6062-3.5321 0.1454 0.17936 4.4821 11.314 9.6372 24.744 5.1552 13.43 9.5643 24.882 9.798 25.449 0.23361 0.56712-0.76471 1.6463-2.2187 2.3982-2.9276 1.5139-4.1673 1.6972-4.7796 0.70655zm-153.45-6.098c-0.20517-0.35973-0.62071-2.0308-0.92351-3.7135l-0.55056-3.0595 16.787-3.5223c18.409-3.8626 17.537-3.9488 18.232 1.8038l0.29926 2.4785-15.697 3.3031c-17.095 3.5972-17.599 3.6724-18.147 2.71zm75.267-12.574c-4.5565-3.3548-8.3862-6.3725-8.5104-6.706-0.12409-0.3335 1.7398-3.7192 4.1423-7.5238 2.4025-3.8046 4.3681-7.1592 4.3681-7.4547 0-0.2955-2.1499-2.0775-4.7775-3.96-2.6276-1.8825-4.7755-3.6189-4.7729-3.8588 0.0025-0.23981 1.0733-1.7 2.3794-3.245l2.3747-2.8089 6.9765 5.2547c3.8371 2.8901 7.3027 5.5791 7.7014 5.9756 0.39871 0.39651-1.2821 3.9234-3.7351 7.8375-2.453 3.9141-4.2373 7.477-3.965 7.9175 0.27224 0.44051 2.836 2.4431 5.6973 4.4501 2.8613 2.007 5.2023 3.794 5.2023 3.9711 0 0.66661-3.943 6.3775-4.3603 6.3152-0.23978-0.0359-4.1641-2.8099-8.7206-6.1647zm40.115 1.5217-17.877-4.5672 0.13003-2.7782c0.26193-5.5926-0.44849-5.5718 19.49-0.57029 10.138 2.5431 18.628 4.8193 18.867 5.0583 0.61119 0.6112-1.3566 7.6047-2.112 7.5057-0.34123-0.0448-8.6652-2.1365-18.498-4.6484zm39.339-32.115c-3.0637-11.631-5.7284-21.571-5.9216-22.089-0.30912-0.82814 6.5029-3.5388 7.1006-2.8255 0.12834 0.15315 2.6586 9.5005 5.6226 20.772 2.9641 11.271 5.5868 21.157 5.8283 21.967 0.33092 1.1109-0.37616 1.6998-2.8734 2.3933-1.8218 0.50589-3.5089 0.922-3.7493 0.92465-0.24027 3e-3 -2.9436-9.5115-6.0073-21.143zm-146.2 4.394c-5.2583-6.3267-10.229-12.346-11.046-13.376-1.4314-1.8046-1.3836-1.9717 1.3081-4.5742l2.7938-2.7012 6.6383 8.0197c3.6511 4.4109 8.6378 10.412 11.082 13.335l4.4432 5.3154-5.6582 5.4842zm88.229 6.9622c-1.1883-4.4352-0.69346-5.8035 2.2795-6.3032 5.4032-0.90803 14.175-2.2058 14.953-2.2123 0.44453-3e-3 0.57615-4.4824 0.3048-10.372l-0.47759-10.366 19.884-1.2424v-21.629h24.418v7.8485h-16.42l-0.61797 6.5947c-0.33987 3.6271-0.40993 8.1458-0.15574 10.041 0.57682 4.3005-0.72429 5.1614-7.8204 5.1749-2.7894 6e-3 -6.4468 0.23719-8.1276 0.51535l-3.0559 0.50575 0.31584 9.9494c0.17378 5.4722 0.14555 9.9494-0.0626 9.9494-0.6835 0-19.368 2.579-22.159 3.0585-2.2983 0.39494-2.8109 0.15696-3.2583-1.513zm-44.158-24.024v-4.2829l13.22-0.57219c7.2708-0.3147 15.316-0.5722 17.877-0.5722h4.6577v7.6595l-16.351 0.59564c-8.9931 0.32759-17.038 0.78903-17.877 1.0254-1.3046 0.36736-1.5261-0.19187-1.5261-3.8532zm51.846-11.595-2.5746-2.7071 4.6606-4.3029 4.6606-4.3029-4.9909-6.1772c-2.745-3.3974-5.0385-6.6659-5.0966-7.2632-0.0581-0.5973 3.3977-4.3499 7.6796-8.3392l7.7853-7.2532 5.0416 5.9626-5.4263 5.0286-5.4263 5.0286 2.9259 3.692c1.6092 2.0306 4.0934 5.1678 5.5203 6.9715l2.5944 3.2795-6.8232 6.3132c-3.7528 3.4722-7.0781 6.4175-7.3895 6.545-0.31142 0.12746-1.7248-0.98632-3.1408-2.4752zm-23.286-0.0783c-1.319-0.48173-2.3982-1.3958-2.3982-2.0314 0-1.7266 12.12-37.33 13.011-38.221 0.99853-0.99855 7.1964 1.2189 6.7765 2.4245-0.17378 0.49864-3.1906 9.4419-6.7042 19.874-3.5136 10.432-6.8156 18.936-7.3377 18.898-0.52208-0.0378-2.0284-0.46299-3.3474-0.94473zm-65.187-1.8224c-1.1991-0.54725-2.3083-1.0787-2.4649-1.1811-0.4018-0.26253 11.265-32.885 12.084-33.787 0.66647-0.73483 6.9608 1.0857 6.9393 2.0071-5e-3 0.26337-2.6908 7.935-5.966 17.048-3.6588 10.181-6.4285 16.635-7.1833 16.739-0.67569 0.0932-2.2096-0.27815-3.4087-0.82542zm34.833-7.3329c-7.407-4.1289-13.639-7.6585-13.848-7.8436-0.20962-0.18506 0.37898-1.8961 1.3081-3.8024l1.6893-3.4659 13.517 7.4875c7.4343 4.1181 13.752 7.746 14.039 8.062 0.28707 0.31599-0.32395 2.0359-1.3578 3.822l-1.8798 3.2475zm14.601-15.79-6.8141-8.4878 6.1783-5.6684c3.3981-3.1176 6.1701-6.0047 6.16-6.4156-0.0099-0.41097-1.599-2.7325-3.531-5.1591l-3.5128-4.4118 2.3678-2.4715c1.3023-1.3593 2.6567-2.4715 3.0098-2.4715 0.35305 0 3.4038 3.5012 6.7794 7.7805l6.1374 7.7805-13.009 11.909 9.5683 11.635-2.6728 2.249c-1.4701 1.237-2.937 2.2424-3.26 2.2343-0.32294-0.0073-3.6535-3.8343-7.4012-8.5026zm64.701-1.0809c-0.57571-1.9216-0.87475-3.6659-0.66454-3.8761 1.0819-1.0819 33.46-11.729 33.958-11.167 1.195 1.3493 2.438 6.3038 1.6966 6.762-0.78131 0.48289-33.017 11.774-33.614 11.774-0.18071 0-0.79977-1.5722-1.3755-3.4939zm-128.58-0.94941-2.5613-2.6992 4.7121-4.1763 4.7121-4.1763-10.933-14.133 6.7721-6.3336c9.8789-9.2393 9.454-9.0401 12.116-5.6829l2.2504 2.8375-5.2314 5.0931-5.2315 5.0931 5.4134 6.9978 5.4134 6.9978-6.9448 6.4058c-3.8197 3.5232-7.1657 6.4214-7.4357 6.4404-0.26999 0.0191-1.6435-1.18-3.0522-2.6646zm42.132-6.2545c-3.7423-0.92958-3.8015-1.2177-1.8482-8.9938 0.78211-3.1136 1.2006-5.8824 0.93004-6.153-0.27058-0.27059-4.5173-1.4433-9.4371-2.606-4.9198-1.1627-9.0191-2.2026-9.1095-2.3108-0.09048-0.10823 0.53748-4.5135 1.3953-9.7895 0.85776-5.276 1.4212-9.734 1.2522-9.9068-0.16908-0.17277-4.3519-1.0976-9.2953-2.0551-4.9433-0.95754-9.0811-1.8251-9.195-1.9279-0.11396-0.10279 0.36885-5.8492 1.0728-12.77 0.704-6.9207 1.2878-12.877 1.2972-13.237 0.0099-0.35972 1.1624-0.65405 2.5621-0.65405 4.9365 0 4.9809 0.10306 4.1412 9.61-0.42274 4.7863-0.56957 9.2211-0.3263 9.8551 0.2691 0.70126 4.0866 1.7773 9.7478 2.7477 8.6538 1.4833 9.2752 1.7233 8.8737 3.4261-0.23756 1.0071-0.87773 4.9705-1.4228 8.8076-0.5451 3.8371-1.1765 7.6213-1.4032 8.4093-0.33928 1.1796 1.3658 1.8665 9.6458 3.8859 5.5318 1.3492 10.058 2.7844 10.058 3.1893 0 0.74257-5.3163 21.081-5.5452 21.214-0.06773 0.03943-1.5948-0.2939-3.3934-0.74068zm51.064-16.177c-5.369-3.711-10.061-7.0463-10.426-7.4119-1.0245-1.0245 2.441-6.837 3.7719-6.3263 0.63246 0.2427 4.0766 2.4162 7.6537 4.83 3.5771 2.4138 6.8787 4.3887 7.337 4.3887 0.45825 0 3.3037-3.3356 6.3232-7.4125 3.0195-4.0769 5.8998-7.3975 6.4007-7.379 0.50087 0.01829 4.0501 2.568 7.8871 5.6657 3.8371 3.0977 7.1727 5.6146 7.4125 5.5932 0.23979-0.02151 2.9868-3.1895 6.1044-7.0401 3.1176-3.8506 6.1374-7.3939 6.7105-7.8738 0.74683-0.62542 3.4651 1.2887 9.5927 6.7549 4.7028 4.1952 8.8427 7.8728 9.1998 8.1723 0.35706 0.29957-0.48159 1.8992-1.8636 3.5546l-2.5128 3.01-6.1287-5.4469c-3.3708-2.9958-6.3472-5.4469-6.6143-5.4469-0.26704 0-3.3607 3.4738-6.8748 7.7195l-6.3893 7.7195-6.4983-5.1339c-9.7837-7.7295-8.5101-7.8201-14.869 1.0577-3.0704 4.2869-5.7788 7.7849-6.0186 7.7734-0.23978-0.01167-4.8288-3.0572-10.198-6.7682zm-44.14-15.638c-0.20518-0.35972-0.62148-2.035-0.92524-3.7228l-0.55226-3.0687 35.78-8.903 0.50602 2.2879c0.2783 1.2583 0.68677 2.9575 0.90771 3.776 0.46471 1.7217-1.5925 2.4081-21.628 7.2172-14.278 3.427-13.578 3.3072-14.088 2.4134zm75.703-5.6424c-1.4389-0.50533-2.7363-1.0179-2.8831-1.139-0.2299-0.18968 1.6572-8.3094 2.9744-12.798 0.35534-1.2108-0.97837-1.9106-7.2404-3.7988-4.2218-1.273-7.9393-2.5673-8.261-2.8761-0.32178-0.30883 0.43112-4.8207 1.6731-10.026l2.2582-9.4649 3.0479 0.49461c1.6764 0.27204 3.3628 0.80951 3.7477 1.1944 0.3849 0.38488 0.10019 2.996-0.63275 5.8026-0.73287 2.8065-1.1612 5.5472-0.95189 6.0904 0.20938 0.54316 3.7654 1.9345 7.9025 3.0918 5.4344 1.5203 7.5156 2.4883 7.4994 3.4882-0.0465 2.868-4.889 20.459-5.6858 20.655-0.45771 0.1126-2.0095-0.20873-3.4484-0.71406zm-36.307-15.817c-7.0189-7.263-13.841-14.502-15.161-16.087l-2.3991-2.8818 4.9505-5.1672 5.123 5.0294c2.8176 2.7662 9.8603 10.048 15.65 16.182l10.527 11.153-2.4741 2.5824c-1.3608 1.4203-2.695 2.5404-2.965 2.489-0.26999-0.05142-6.2336-6.0359-13.252-13.299zm58.591-4.8311-14.343-13.788 2.1338-2.6951c1.1736-1.4823 2.3707-2.7168 2.6603-2.7434 0.69399-0.0636 29.568 27.085 29.532 27.767-0.0462 0.88334-4.2022 5.3255-4.945 5.2856-0.38274-0.02052-7.1501-6.2422-15.039-13.826zm-89.086 1.8838c-2.0073-2.7642-3.9584-5.3714-4.3358-5.7938-0.37742-0.4224-3.4835 1.2666-6.9025 3.7533-3.419 2.4867-6.6837 4.6805-7.255 4.875-1.2528 0.42656-12.244-14.947-11.522-16.115 0.27889-0.45127 1.6164-1.6104 2.9722-2.5758l2.4651-1.7553 3.2831 4.7669c1.8057 2.6218 3.6647 4.7669 4.131 4.7669 0.46636 0 3.8086-2.1621 7.4272-4.8048l6.5793-4.8048 3.6236 5.0228c10.274 14.242 9.707 13.183 7.8439 14.639-4.3131 3.372-4.4518 3.3391-8.3103-1.9745z" fill="#784421" stroke-width=".87206"/>
  </g>
  <rect x="-.20071" y="-16.736" width="157.71" height="215.83" fill="#211232" fill-rule="evenodd" opacity=".9" stop-color="#000000" stroke-width=".77274"/>
 </g>
</svg>
